<svg width="401" height="115" viewBox="0 0 401 115" fill="none" xmlns="http://www.w3.org/2000/svg">
<path d="M166.882 56.9423C155.018 56.9423 146.391 65.5886 146.391 76.7574C146.391 87.9254 155.018 96.5725 166.882 96.5725C178.745 96.5725 187.373 87.9254 187.373 76.7574C187.373 65.5886 178.745 56.9423 166.882 56.9423ZM166.882 89.0065C160.051 89.0065 155.018 83.9626 155.018 76.7574C155.018 69.5515 160.051 64.5079 166.882 64.5079C173.712 64.5079 178.745 69.5515 178.745 76.7574C178.745 83.9626 173.712 89.0065 166.882 89.0065ZM19.6884 19.7308C-6.5628 46.0387 -6.5628 88.692 19.6884 115V95.2691C45.9396 121.577 88.501 121.577 114.752 95.2691H19.6884V19.7308ZM240.458 56.9423C230.392 56.9423 227.157 64.508 227.157 64.508H226.797C226.797 64.508 224.281 56.9423 214.934 56.9423C206.665 56.9423 203.43 63.7878 203.43 63.7878H203.071L202.711 58.0227H194.802V95.4915H203.071V75.3167C203.071 68.8313 207.744 64.5079 212.777 64.5079C217.45 64.5079 220.326 67.0304 220.326 72.7945V95.4915H228.595V75.3167C228.595 68.8313 233.268 64.5079 238.301 64.5079C242.975 64.5079 245.851 67.0304 245.851 72.7945V95.4915H254.119V72.434C254.119 62.7067 248.727 56.9423 240.458 56.9423V56.9423ZM95.0638 0.000136368V95.2691C121.315 68.9612 121.315 26.3079 95.0638 0V0.000136368ZM8.75978e-05 19.7307H95.0638C68.8126 -6.57684 26.2512 -6.57684 8.75978e-05 19.7307ZM345.441 83.602H345.082L333.937 58.0228H325.309L341.487 95.4914H349.036L365.214 58.0228H356.586L345.441 83.602ZM384.822 56.9423C375.332 56.9423 369.899 61.6575 369.899 61.6575V69.2235H370.977C370.977 69.2235 375.476 64.5079 383.744 64.5079C389.496 64.5079 392.731 67.3901 392.731 72.4341V75.6764C392.731 75.6764 388.777 73.1547 381.946 73.1547C372.959 73.1547 367.926 78.1982 367.926 85.2598C367.926 91.5286 372.959 96.5724 380.509 96.5724C389.855 96.5724 392.372 89.727 392.372 89.727H392.731L393.091 95.4914H401V72.0733C401 62.7068 395.248 56.9423 384.822 56.9423ZM382.306 89.3662C378.711 89.3662 376.554 87.5654 376.554 84.3235C376.554 81.0801 379.07 78.9192 383.385 78.9192C389.855 78.9192 392.731 81.4409 392.731 81.4409C392.731 81.4409 390.934 89.3662 382.306 89.3662ZM314.667 40.7302C312.006 40.7302 309.85 42.531 309.85 45.63C309.85 48.6564 312.006 50.4575 314.667 50.4575C317.399 50.4575 319.556 48.6564 319.556 45.63C319.556 42.5311 317.399 40.7302 314.667 40.7302ZM310.568 95.4914H318.837V58.0225H310.568V95.4914ZM285.4 56.9423C276.413 56.9423 273.177 63.7878 273.177 63.7878H272.818L272.458 58.0226H264.549V95.4915H272.818V75.3167C272.818 69.1914 277.851 64.5079 283.602 64.5079C288.635 64.5079 291.871 67.3901 291.871 72.7945V95.4915H300.139V72.434C300.139 62.7067 294.387 56.9423 285.4 56.9423Z" fill="#FF6600"/>
</svg>
